<mxfile host="app.diagrams.net" modified="2023-03-31T07:09:01.162Z" agent="Mozilla/5.0 (Windows NT 10.0; Win64; x64) AppleWebKit/537.36 (KHTML, like Gecko) Chrome/111.0.0.0 Safari/537.36" etag="bbyMOYEckmjOs8bitmwJ" version="21.1.2" type="github" pages="2">
  <diagram name="login" id="Z6IrGdXx_l9ofzOVfJud">
    <mxGraphModel dx="1114" dy="584" grid="1" gridSize="10" guides="1" tooltips="1" connect="1" arrows="1" fold="1" page="1" pageScale="1" pageWidth="850" pageHeight="1100" math="0" shadow="0">
      <root>
        <mxCell id="0" />
        <mxCell id="1" parent="0" />
        <mxCell id="frvhdSqtfrtCgQY8Pfvw-1" value="" style="rounded=0;whiteSpace=wrap;html=1;fillColor=#eeeeee;strokeColor=#36393d;" vertex="1" parent="1">
          <mxGeometry x="50" y="300" width="750" height="450" as="geometry" />
        </mxCell>
        <mxCell id="frvhdSqtfrtCgQY8Pfvw-2" value="" style="rounded=0;whiteSpace=wrap;html=1;shadow=1;" vertex="1" parent="1">
          <mxGeometry x="230" y="350" width="390" height="330" as="geometry" />
        </mxCell>
        <mxCell id="frvhdSqtfrtCgQY8Pfvw-3" value="Username" style="rounded=1;whiteSpace=wrap;html=1;gradientColor=none;fillColor=default;shadow=1;" vertex="1" parent="1">
          <mxGeometry x="360" y="480" width="120" height="20" as="geometry" />
        </mxCell>
        <mxCell id="frvhdSqtfrtCgQY8Pfvw-4" value="Password" style="rounded=1;whiteSpace=wrap;html=1;shadow=1;" vertex="1" parent="1">
          <mxGeometry x="360" y="520" width="120" height="20" as="geometry" />
        </mxCell>
        <mxCell id="frvhdSqtfrtCgQY8Pfvw-5" value="login" style="rounded=1;whiteSpace=wrap;html=1;shadow=1;" vertex="1" parent="1">
          <mxGeometry x="395" y="560" width="50" height="20" as="geometry" />
        </mxCell>
        <mxCell id="frvhdSqtfrtCgQY8Pfvw-6" value="&lt;b&gt;&lt;font style=&quot;font-size: 18px;&quot;&gt;Log In&lt;/font&gt;&lt;/b&gt;" style="text;html=1;strokeColor=none;fillColor=none;align=center;verticalAlign=middle;whiteSpace=wrap;rounded=0;" vertex="1" parent="1">
          <mxGeometry x="385" y="370" width="60" height="30" as="geometry" />
        </mxCell>
      </root>
    </mxGraphModel>
  </diagram>
  <diagram id="X-EWHkxFp5nov5bRU607" name="Page-2">
    <mxGraphModel dx="1114" dy="584" grid="1" gridSize="10" guides="1" tooltips="1" connect="1" arrows="1" fold="1" page="1" pageScale="1" pageWidth="850" pageHeight="1100" math="0" shadow="0">
      <root>
        <mxCell id="0" />
        <mxCell id="1" parent="0" />
      </root>
    </mxGraphModel>
  </diagram>
</mxfile>
